<?xml version="1.0" encoding="utf-8"?>
<!-- Generator: Adobe Illustrator 16.0.0, SVG Export Plug-In . SVG Version: 6.00 Build 0)  -->
<!DOCTYPE svg PUBLIC "-//W3C//DTD SVG 1.1//EN" "http://www.w3.org/Graphics/SVG/1.1/DTD/svg11.dtd">
<svg version="1.1" id="Layer_1" xmlns="http://www.w3.org/2000/svg" xmlns:xlink="http://www.w3.org/1999/xlink" x="0px" y="0px"
	 width="415.825px" height="315.02px" viewBox="0 0 415.825 315.02" enable-background="new 0 0 415.825 315.02"
	 xml:space="preserve">
<path d="M352.693,0.095V0h-18.901v6.3c0,0,12.601,0,12.601,12.601v44.234c-2.052-0.084-4.15-0.131-6.3-0.131
	c-16.457,0-30.05,2.505-40.953,6.92c-10.902-4.416-24.495-6.92-40.952-6.92s-30.05,2.505-40.952,6.92
	c-10.903-4.416-24.496-6.92-40.953-6.92c-2.105,0-4.159,0.045-6.172,0.126v-0.126h-69.304v52.758
	c-0.083,1.303-0.129,2.618-0.129,3.945v138.608h69.305V126.008h0.128v-12.596c10.869,0.087,12.472,11.045,12.472,18.896v126.008
	h0.129v18.901c0,0-5.936,35.661,63.003,37.708v0.096h18.901v-6.301c0,0-12.602,0-12.602-12.601V113.412
	c10.87,0.087,12.474,11.045,12.474,18.896v75.604c0,31.531,23.411,56.704,75.604,56.704s75.604-25.172,75.604-56.704V37.802
	C415.697,37.802,421.633,2.142,352.693,0.095z M340.093,214.213c-6.301,0-6.301-6.301-6.301-12.601v-75.604
	c0-6.3,0-12.601,6.301-12.601c6.3,0,6.3,6.3,6.3,12.601v75.604C346.393,201.612,348.492,214.213,340.093,214.213z M0,75.605v56.703
	c0,0,18.901-12.601,18.901,12.601v113.407h69.304V63.004H12.601C12.601,63.004,0,63.004,0,75.605z"/>
</svg>
